# xmcd
# Track frame offsets:
# 150
# 12416
# 30561
# 42424
# 55374
# 66313
# 82904
# 100897
# 117674
# 132231
# 141990
#
# Disc length: 1983 seconds
# Revision: 0
# Processed by: cddbd v1.5.1PL0 Copyright (c) Steve Scherf et al.
# Submitted via: VisiTrax 2.9.10.228 - For more info visit www.synapsa.com
#
DISCID=9d07bd0b
DTITLE=Dylan, Bob - New Morning
DYEAR=1972
DGENRE=Misc
TTITLE0=Bob Dylan - If Not for You
TTITLE1=Bob Dylan - Day of the Locusts
TTITLE2=Bob Dylan - Time Passes Slowly
TTITLE3=Bob Dylan - Went to See the Gypsy
TTITLE4=Bob Dylan - Winterlude
TTITLE5=Bob Dylan - If Dogs Run Free
TTITLE6=Bob Dylan - New Morning
TTITLE7=Bob Dylan - Sign on the Window
TTITLE8=Bob Dylan - One More Weekend
TTITLE9=Bob Dylan - Three Angles
TTITLE10=Bob Dylan - Father Of The Night
EXTD=
EXTT0=
EXTT1=
EXTT2=
EXTT3=
EXTT4=
EXTT5=
EXTT6=
EXTT7=
EXTT8=
EXTT9=
EXTT10=
PLAYORDER=
